Exact Audio Copy V0.99 prebeta 1 from 25. May 2007

EAC 抓取日志文件从4. 三月 2011, 21:00

苏平 / 20世纪中华歌坛名人百集珍藏版

使用驱动器  ：PIONEER DVD-RW  DVR-115   Adapter: 0  ID: 0

读取模式     : 保护
使用精确流   : 是
废除音频缓冲 : 是
使用 C2 指针 : 否

组合读/写偏移校正              : 48
读取 Lead-In 和 Lead-Out       : 否
用静音填充抓取中丢失偏移的采样 : 是
去除首尾静音块                 : 否
已用接口                       : Win NT 及 2000 本地 Win32 接口

所用输出格式 : 内部 WAV 函数
样本格式     : 44.100 Hz;16 Bit;立体声
使用压缩偏移 : 48


被抓轨 CD 的 TOC

     音轨 |   开始   |   长度   | 起始扇区 | 结尾扇区 
    --------------------------------------------------
       1  |  0:00.32 |  2:42.33 |      32  |   12214  
       2  |  2:42.65 |  3:03.57 |   12215  |   25996  
       3  |  5:46.47 |  3:25.43 |   25997  |   41414  
       4  |  9:12.15 |  2:51.15 |   41415  |   54254  
       5  | 12:03.30 |  3:08.10 |   54255  |   68364  
       6  | 15:11.40 |  3:02.47 |   68365  |   82061  
       7  | 18:14.12 |  4:00.40 |   82062  |  100101  
       8  | 22:14.52 |  4:17.55 |  100102  |  119431  
       9  | 26:32.32 |  3:32.08 |  119432  |  135339  
      10  | 30:04.40 |  3:43.47 |  135340  |  152111  
      11  | 33:48.12 |  2:34.73 |  152112  |  163734  
      12  | 36:23.10 |  2:17.42 |  163735  |  174051  
      13  | 38:40.52 |  2:43.53 |  174052  |  186329  
      14  | 41:24.30 |  1:39.72 |  186330  |  193826  
      15  | 43:04.27 |  4:24.05 |  193827  |  213631  
      16  | 47:28.32 |  1:33.70 |  213632  |  220676  
      17  | 49:02.27 |  3:17.10 |  220677  |  235461  
      18  | 52:19.37 |  1:54.15 |  235462  |  244026  
      19  | 54:13.52 |  1:26.05 |  244027  |  250481  


范围状态及错误

已选择范围

     文件名 E:\20世纪中华歌坛名人百集珍藏版-苏平[lwg188原创]\苏平 - 20世纪中华歌坛名人百集珍藏版.wav

     峰值电平 100.0 %
     范围质量 100.0 %
     复制 CRC 6FDCCB92
     复制成功

没有错误发生

状态报告结尾
